<svg
  height="200"
  width="200"
  transform="rotate(-90)"
  xmlns="http://www.w3.org/2000/svg"
>
  <path
    d="M186.821 70.66c-25.204 26.213-53.108 50.043-80.112 72.979l-2.7 2.383c-2.4 2.085-5.101 2.979-7.801 2.979s-5.401-1.191-7.501-3.277c-24.904-26.213-49.208-51.532-75.012-74.468-3.601-2.979-4.501-7.447-3-11.915 1.8-4.468 6.301-7.745 11.102-7.745 2.7 0 5.101.894 7.201 2.979 24.604 21.745 48.007 46.17 68.41 67.617 23.704-20.255 50.108-42.894 73.811-67.915 2.1-2.085 4.801-3.277 7.501-3.277 4.201 0 8.401 2.979 10.502 7.149 1.5 4.468.9 9.234-2.401 12.511z"
  ></path>
</svg>