<svg
  viewBox="37.501 20 124.998 160"
  height="200"
  width="200"
  xmlns="http://www.w3.org/2000/svg"
>
    <path
      d="M140.614 123.831a6.81 6.81 0 0 0 6.811 6.808 6.81 6.81 0 1 0 0-13.617 6.81 6.81 0 0 0-6.811 6.809z"
      fill="#86D5FF"
    ></path>
    <path
      d="M155.566 110.68a3.466 3.466 0 1 0 6.933-.001 3.466 3.466 0 0 0-6.933.001z"
      fill="#86D5FF"
    ></path>
    <path
      d="M143.819 102.664a3.939 3.939 0 1 0 7.877-.001 3.939 3.939 0 0 0-7.877.001z"
      fill="#86D5FF"
    ></path>
    <path
      d="M153.122 87.044a3.713 3.713 0 0 0 3.714 3.712 3.713 3.713 0 1 0-3.714-3.712z"
      fill="#86D5FF"
    ></path>
    <path
      d="M59.386 123.831a6.81 6.81 0 0 1-6.811 6.808 6.81 6.81 0 1 1 0-13.617 6.81 6.81 0 0 1 6.811 6.809z"
      fill="#86D5FF"
    ></path>
    <path
      d="M44.434 110.68a3.466 3.466 0 1 1-6.933-.001 3.466 3.466 0 0 1 6.933.001z"
      fill="#86D5FF"
    ></path>
    <path
      d="M56.181 102.664a3.939 3.939 0 1 1-7.877-.001 3.939 3.939 0 0 1 7.877.001z"
      fill="#86D5FF"
    ></path>
    <path
      d="M46.878 87.044a3.713 3.713 0 1 1-7.426-.002 3.713 3.713 0 0 1 7.426.002z"
      fill="#86D5FF"
    ></path>
    <path
      d="M40.865 168.889a1.106 1.106 0 0 1-.361-2.149l20.629-7.142a1.105 1.105 0 1 1 .723 2.088l-20.629 7.142c-.12.042-.242.061-.362.061z"
    ></path>
    <path
      d="M159.136 168.889c-.117 0-.236-.019-.352-.058l-20.314-6.828a1.105 1.105 0 1 1 .705-2.094l20.314 6.828a1.105 1.105 0 0 1-.353 2.152z"
    ></path>
    <path
      d="M100.019 122.379c-2.707 0-7.589-.316-9.876-2.433a1.104 1.104 0 1 1 1.502-1.621c1.248 1.155 4.379 1.845 8.375 1.845 3.996 0 7.127-.69 8.375-1.845a1.106 1.106 0 0 1 1.502 1.621c-2.289 2.117-7.171 2.433-9.878 2.433z"
    ></path>
    <path
      d="M100.019 113.298c-1.7 0-3.224-.689-3.976-1.799a1.105 1.105 0 1 1 1.83-1.239c.271.399 1.058.829 2.146.829 1.089 0 1.876-.43 2.146-.829a1.106 1.106 0 0 1 1.83 1.239c-.752 1.109-2.275 1.799-3.976 1.799z"
    ></path>
    <path
      d="M115.497 100.805c-2.627 0-4.961-1.038-6.093-2.708a1.105 1.105 0 1 1 1.83-1.239c.704 1.039 2.418 1.738 4.263 1.738 1.846 0 3.559-.698 4.264-1.738a1.106 1.106 0 0 1 1.83 1.239c-1.132 1.671-3.467 2.708-6.094 2.708z"
    ></path>
    <path
      d="M84.541 100.805c-2.627 0-4.961-1.038-6.093-2.708a1.105 1.105 0 1 1 1.83-1.239c.704 1.039 2.418 1.738 4.263 1.738 1.846 0 3.559-.698 4.264-1.738a1.106 1.106 0 0 1 1.83 1.239c-1.132 1.671-3.467 2.708-6.094 2.708z"
    ></path>
    <path
      d="M100.019 127.711c-2.178 0-4.137-.635-5.112-1.656a1.105 1.105 0 1 1 1.599-1.525c.447.468 1.737.972 3.513.972 1.777 0 3.067-.504 3.513-.972a1.104 1.104 0 1 1 1.599 1.525c-.974 1.021-2.933 1.656-5.112 1.656z"
    ></path>
    <path
      d="M130.579 114.206a1.105 1.105 0 0 1-1.038-1.484 75.595 75.595 0 0 0 3.75-14.673 1.105 1.105 0 1 1 2.185.329 77.846 77.846 0 0 1-3.86 15.102 1.103 1.103 0 0 1-1.037.726z"
    ></path>
    <path
      d="M100.001 144.045c-4.633 0-9.202-1.556-13.58-4.626a1.104 1.104 0 1 1 1.269-1.809c3.999 2.804 8.141 4.225 12.311 4.225 4.147 0 8.268-1.407 12.246-4.181a1.106 1.106 0 0 1 1.265 1.812c-4.357 3.039-8.903 4.579-13.511 4.579z"
    ></path>
    <path
      d="M69.065 113.205c-.457 0-.884-.285-1.043-.74a78.001 78.001 0 0 1-3.46-13.837 1.105 1.105 0 0 1 2.185-.337 75.873 75.873 0 0 0 3.362 13.444 1.104 1.104 0 0 1-1.044 1.47z"
    ></path>
    <path
      d="M65.705 108.891c-4.373 0-7.93-3.556-7.93-7.927 0-3.75 2.664-7.016 6.333-7.766a1.104 1.104 0 1 1 .443 2.165 5.734 5.734 0 0 0-4.566 5.602 5.725 5.725 0 0 0 7.259 5.509 1.104 1.104 0 1 1 .593 2.129 8.053 8.053 0 0 1-2.132.288z"
    ></path>
    <path
      d="M68.079 96.737a1.104 1.104 0 0 1-.922-1.713 19.802 19.802 0 0 0 2.787-6.568c2.764-12.233 9.59-16.411 27.052-16.56 10.803-.092 15.76-2.945 18.017-5.323 2.415-2.544 2.333-5.053 2.328-5.159a1.11 1.11 0 0 1 1.571-1.058c10.941 5.102 13.05 23.787 13.449 31.584.049.964.276 1.888.674 2.745a1.105 1.105 0 0 1-2.005.93 9.573 9.573 0 0 1-.876-3.562c-.36-7.04-2.139-23.414-10.804-28.939-.29 1.296-.992 3.116-2.667 4.909-3.696 3.957-10.314 6.004-19.669 6.083-18.263.155-22.719 5.118-24.915 14.837a21.988 21.988 0 0 1-3.098 7.298 1.102 1.102 0 0 1-.922.496z"
    ></path>
    <path
      d="M134.333 108.891c-.739 0-1.47-.102-2.174-.302a1.105 1.105 0 1 1 .605-2.125 5.725 5.725 0 0 0 7.288-5.501 5.717 5.717 0 0 0-5.034-5.677 1.104 1.104 0 1 1 .262-2.194 7.929 7.929 0 0 1 6.982 7.871c.002 4.371-3.556 7.928-7.929 7.928z"
    ></path>
    <path
      d="M137.144 94.98a1.106 1.106 0 0 1-1.061-1.417 56.309 56.309 0 0 0 2.304-15.867c0-16.52-7.484-29.79-20.532-36.405-5.413-2.753-11.413-4.148-17.837-4.148-6.426 0-12.428 1.395-17.839 4.147-13.05 6.615-20.533 19.884-20.533 36.406a56.226 56.226 0 0 0 2.308 15.867 1.104 1.104 0 1 1-2.12.625 58.416 58.416 0 0 1-2.399-16.491c0-8.834 2.021-16.756 6.008-23.546 3.748-6.384 9.189-11.512 15.735-14.83 5.724-2.911 12.063-4.387 18.84-4.387 6.775 0 13.113 1.476 18.838 4.388 6.544 3.318 11.984 8.445 15.732 14.828 3.987 6.79 6.009 14.712 6.009 23.547a58.545 58.545 0 0 1-2.394 16.491c-.141.48-.582.792-1.059.792z"
    ></path>
    <path
      d="M118.356 41.41c-.172 0-.343-.04-.501-.12-5.411-2.752-11.412-4.147-17.835-4.147-6.426 0-12.428 1.395-17.839 4.147a1.106 1.106 0 0 1-1.605-.931 18.14 18.14 0 0 1-.022-.903c0-10.729 8.73-19.456 19.462-19.456 10.733 0 19.466 8.727 19.466 19.455 0 .301-.007.602-.022.903a1.105 1.105 0 0 1-1.104 1.052zm-18.34-19.201c-9.208 0-16.754 7.249-17.228 16.338 5.296-2.399 11.083-3.614 17.232-3.614 6.146 0 11.933 1.215 17.228 3.614-.475-9.088-8.022-16.338-17.232-16.338z"
    ></path>
    <path
      d="M120.835 91.524c-.102 0-.205-.014-.308-.044-5.992-1.735-9.877-.07-9.916-.053a1.109 1.109 0 0 1-1.458-.558 1.101 1.101 0 0 1 .55-1.456c.185-.084 4.611-2.032 11.438-.055a1.104 1.104 0 0 1-.306 2.166z"
    ></path>
    <path
      d="M79.203 91.524a1.105 1.105 0 0 1-.307-2.166c6.828-1.977 11.253-.029 11.438.055a1.104 1.104 0 0 1-.908 2.014c-.054-.023-3.935-1.678-9.915.053-.102.03-.206.044-.308.044z"
    ></path>
    <path
      d="M118.511 112.619s-1.488-2.566-2.692-1.91c-.731.398-1.327.913-.906 4.054.421 3.141 1.823 10.506 1.823 10.506l-.816-4.413-.3.291c-.234-.62-.509-1.133-.846-1.461-1.055-1.018-1.999.255-1.999 1.908 0 .431.074 1.174.201 2.101l-.156.148c-3.876-3.353.218-5.594-1.248-9.259-1.252-3.14-3.075-4.556 1.49-6.037 2.373-.772 2.426-3.472 5.202-3.883 2.11-.312 5.411.378 6.442 2.463.595 1.207 1.938 2.713 1.503 3.813l-.181.176c-.747-1.449-1.519-1.691-2.069-1.022-.39.472-.595 1.761-.357 3.357l-.185.181c-.71-1.621-2.11-4.732-2.825-5.66-.981-1.272-2.665-.542-2.455 1.765.07.731.189 1.728.37 2.877l.004.005c.229 1.44.558 3.119.993 4.785"
      fill="#86D5FF"
    ></path>
    <path
      d="M81.489 112.619s1.488-2.566 2.692-1.91c.731.398 1.327.913.906 4.054-.421 3.141-1.823 10.506-1.823 10.506l.816-4.413.3.291c.234-.62.509-1.133.846-1.461 1.055-1.018 2 .255 2 1.908 0 .431-.074 1.174-.201 2.101l.156.148c3.876-3.353-.218-5.594 1.248-9.259 1.252-3.14 3.075-4.556-1.49-6.037-2.373-.772-2.427-3.472-5.202-3.883-2.11-.312-5.411.378-6.442 2.463-.595 1.207-1.938 2.713-1.503 3.813l.181.176c.747-1.449 1.519-1.691 2.069-1.022.39.472.595 1.761.357 3.357l.185.181c.71-1.621 2.11-4.732 2.825-5.66.981-1.272 2.665-.542 2.455 1.765-.07.731-.189 1.728-.37 2.877l-.005.005a51.048 51.048 0 0 1-.993 4.785"
      fill="#86D5FF"
    ></path>
    <path
      d="M81.539 180c-.61 0-1.105-.495-1.105-1.105v-13.406c0-.688.144-1.385.417-2.016.364-.841 1.002-2.7 1.192-5.69.089-1.407.246-3.27.412-5.242.359-4.263.806-9.567.615-11.18-.249-2.111.177-3.67.767-5.828.174-.636.371-1.357.573-2.171.868-3.503 1.976-9.973 1.976-11.538 0-.567-.134-.957-.245-1.158-.584.623-1.018 2.427-1.402 4.022a58.112 58.112 0 0 1-.455 1.806c-.304 1.105-.732 2.186-1.228 3.436-.628 1.586-1.34 3.383-2.063 5.863a1.106 1.106 0 0 1-2.122-.618c.752-2.58 1.516-4.509 2.13-6.059.472-1.191.879-2.219 1.152-3.209.153-.554.297-1.155.437-1.736.507-2.108.987-4.1 2.05-5.13.688-.667 1.521-.864 2.286-.54 1.014.429 1.669 1.733 1.669 3.323 0 1.901-1.187 8.625-2.04 12.069-.208.839-.409 1.574-.586 2.222-.563 2.06-.903 3.303-.704 4.987.216 1.835-.203 6.812-.608 11.625-.165 1.961-.321 3.812-.409 5.197-.211 3.324-.948 5.453-1.369 6.427a2.9 2.9 0 0 0-.235 1.14v13.406c0 .608-.495 1.103-1.105 1.103z"
    ></path>
    <path
      d="M64.927 180a1.106 1.106 0 0 1-1.098-1.247c.013-.101 1.309-10.105 1.416-12.679.104-2.505-.198-9.147-1.391-13.875-1.858-7.362-2.644-12.254-2.403-14.957.224-2.508 1.206-4.598 2.156-6.619.383-.816.78-1.659 1.132-2.536.724-1.805 2.83-6.401 4.688-10.456 1.31-2.859 2.547-5.56 2.912-6.442.716-1.734 1.553-2.65 2.56-2.801.665-.099 1.32.174 1.797.751 1.024 1.24 1.062 4.748-.515 7.994a216.403 216.403 0 0 0-3.341 7.21c-.163.373-.355.995-.578 1.716-.605 1.958-1.434 4.64-2.898 6.272a1.105 1.105 0 0 1-1.645-1.476c1.141-1.271 1.887-3.685 2.431-5.448.242-.784.451-1.461.664-1.949.717-1.64 1.981-4.416 3.378-7.29 1.193-2.456 1.112-4.653.887-5.408-.163.197-.409.574-.697 1.273-.38.92-1.569 3.515-2.945 6.519-1.847 4.032-3.941 8.602-4.646 10.358-.375.936-.786 1.809-1.183 2.653-.908 1.932-1.766 3.757-1.955 5.875-.216 2.417.573 7.202 2.344 14.22 1.249 4.948 1.565 11.89 1.457 14.507-.11 2.67-1.378 12.457-1.432 12.873a1.106 1.106 0 0 1-1.095.962z"
    ></path>
    <path
      d="M74.674 134.024a1.104 1.104 0 0 1-1.026-1.514c.031-.079 3.155-7.908 4.669-11.836 1.508-3.913 2.286-9.104 2.486-11.302.077-.84-.172-1.231-.297-1.28-.028-.011-.146.037-.283.214-.681.883-2.353 4.578-3.247 6.699a1.105 1.105 0 0 1-2.037-.858c.248-.589 2.454-5.79 3.533-7.19.732-.95 1.847-1.312 2.841-.923.94.368 1.878 1.491 1.691 3.537-.226 2.474-1.033 7.764-2.625 11.896-1.518 3.939-4.647 11.781-4.678 11.86a1.105 1.105 0 0 1-1.027.697z"
    ></path>
    <path
      d="M83.366 126.753a1.105 1.105 0 0 1-1.087-1.312c.015-.076 1.46-7.679 1.889-10.883.338-2.527-.013-2.895-.314-3.071-.316.115-.976.844-1.383 1.54a1.106 1.106 0 0 1-1.511.398 1.103 1.103 0 0 1-.4-1.508c1.541-2.656 3.225-2.985 4.289-2.405 1.531.834 1.926 2.231 1.51 5.339-.437 3.264-1.848 10.688-1.908 11.003-.102.53-.565.899-1.085.899z"
    ></path>
    <path
      d="M118.461 180c-.61 0-1.105-.495-1.105-1.105v-13.406c0-.389-.081-.784-.235-1.14-.421-.974-1.158-3.103-1.369-6.427-.088-1.384-.244-3.236-.409-5.197-.405-4.813-.824-9.79-.608-11.625.199-1.684-.141-2.927-.704-4.986-.177-.648-.378-1.383-.586-2.223-.853-3.444-2.041-10.167-2.041-12.069 0-1.589.655-2.894 1.669-3.323.765-.324 1.598-.127 2.286.54 1.064 1.031 1.543 3.022 2.051 5.131.14.581.284 1.182.437 1.735.272.99.68 2.018 1.151 3.208.614 1.55 1.378 3.479 2.13 6.059a1.105 1.105 0 1 1-2.122.618c-.723-2.481-1.435-4.278-2.063-5.864-.495-1.25-.923-2.33-1.227-3.436a57.345 57.345 0 0 1-.455-1.805c-.384-1.596-.818-3.4-1.402-4.023-.11.201-.245.59-.245 1.158 0 1.565 1.108 8.035 1.976 11.538.202.814.399 1.535.573 2.172.59 2.158 1.016 3.717.767 5.827-.19 1.613.256 6.918.615 11.18.166 1.972.323 3.835.412 5.242.19 2.99.828 4.849 1.192 5.691.273.631.417 1.328.417 2.016v13.406c0 .613-.495 1.108-1.105 1.108z"
    ></path>
    <path
      d="M135.073 180a1.105 1.105 0 0 1-1.094-.963c-.054-.415-1.322-10.203-1.432-12.873-.108-2.617.208-9.56 1.457-14.506 1.771-7.018 2.56-11.803 2.344-14.22-.189-2.119-1.047-3.944-1.956-5.876a49.963 49.963 0 0 1-1.183-2.652c-.705-1.757-2.8-6.33-4.649-10.365-1.375-3.001-2.562-5.592-2.942-6.512-.29-.702-.536-1.078-.699-1.275-.222.742-.308 2.947.889 5.411a219.967 219.967 0 0 1 3.378 7.29c.213.488.423 1.165.665 1.949.545 1.763 1.291 4.177 2.431 5.447a1.104 1.104 0 1 1-1.645 1.476c-1.464-1.631-2.293-4.313-2.898-6.271-.222-.72-.415-1.343-.578-1.716a214.977 214.977 0 0 0-3.341-7.21c-1.577-3.246-1.54-6.754-.515-7.994.477-.577 1.131-.851 1.796-.751 1.007.151 1.844 1.068 2.56 2.801.364.881 1.6 3.578 2.908 6.435 1.859 4.058 3.966 8.657 4.691 10.463.351.876.748 1.719 1.131 2.535.95 2.021 1.933 4.111 2.157 6.619.241 2.702-.545 7.595-2.403 14.957-1.193 4.727-1.495 11.369-1.391 13.875.106 2.574 1.403 12.579 1.416 12.679a1.105 1.105 0 0 1-1.097 1.247z"
    ></path>
    <path
      d="M125.326 134.024c-.439 0-.854-.263-1.027-.696-.031-.079-3.16-7.921-4.678-11.86-1.593-4.133-2.4-9.422-2.625-11.896-.187-2.046.751-3.169 1.691-3.537.993-.389 2.108-.027 2.841.923 1.078 1.399 3.285 6.601 3.533 7.19a1.105 1.105 0 0 1-2.037.858c-.894-2.121-2.566-5.816-3.247-6.699-.137-.178-.256-.225-.283-.214-.125.049-.373.439-.297 1.28.2 2.197.978 7.387 2.486 11.302 1.514 3.927 4.638 11.757 4.669 11.835a1.106 1.106 0 0 1-1.026 1.514z"
    ></path>
    <path
      d="M116.634 126.753c-.52 0-.984-.369-1.084-.898-.06-.314-1.471-7.739-1.908-11.003-.416-3.108-.021-4.505 1.511-5.339 1.062-.579 2.747-.251 4.288 2.405a1.105 1.105 0 0 1-1.911 1.11c-.407-.696-1.066-1.425-1.383-1.54-.302.176-.653.545-.314 3.071.429 3.204 1.874 10.806 1.889 10.883a1.106 1.106 0 0 1-1.088 1.311z"
    ></path>
</svg>

