<svg
 viewBox="37.501 20 124.998 160"
  height="200"
  width="200"
  xmlns="http://www.w3.org/2000/svg"
>
    <path
      d="M29.107 168.889a1.105 1.105 0 0 1-.362-2.149l20.655-7.142a1.105 1.105 0 1 1 .724 2.088l-20.655 7.142c-.12.042-.242.061-.362.061z"
    ></path>
    <path
      d="M147.529 168.889c-.117 0-.236-.019-.353-.058l-20.34-6.828a1.104 1.104 0 1 1 .706-2.094l20.34 6.828a1.104 1.104 0 0 1-.353 2.152z"
    ></path>
    <path
      d="M75.467 98.589c0 2.1-1.176 3.802-2.627 3.802-1.451 0-2.627-1.702-2.627-3.802s1.176-3.802 2.627-3.802c1.451 0 2.627 1.702 2.627 3.802z"
    ></path>
    <path
      d="M106.462 98.589c0 2.1-1.176 3.802-2.627 3.802-1.45 0-2.627-1.702-2.627-3.802s1.176-3.802 2.627-3.802c1.45 0 2.627 1.702 2.627 3.802z"
    ></path>
    <path
      d="M88.337 122.379c-2.71 0-7.598-.316-9.889-2.433a1.104 1.104 0 0 1-.06-1.561 1.107 1.107 0 0 1 1.564-.06c1.25 1.155 4.385 1.845 8.385 1.845 4.001 0 7.136-.69 8.386-1.845a1.108 1.108 0 0 1 1.564.06 1.104 1.104 0 0 1-.06 1.561c-2.291 2.117-7.18 2.433-9.89 2.433z"
    ></path>
    <path
      d="M88.337 113.298c-1.703 0-3.228-.689-3.981-1.799a1.103 1.103 0 0 1 .295-1.534 1.108 1.108 0 0 1 1.537.295c.271.399 1.059.829 2.149.829s1.878-.43 2.149-.829a1.108 1.108 0 0 1 1.537-.295c.506.342.638 1.029.295 1.534-.752 1.109-2.278 1.799-3.981 1.799z"
    ></path>
    <path
      d="M88.337 127.711c-2.181 0-4.143-.635-5.119-1.656a1.104 1.104 0 0 1 .037-1.562 1.107 1.107 0 0 1 1.564.037c.447.468 1.739.972 3.517.972 1.779 0 3.07-.504 3.518-.972a1.107 1.107 0 0 1 1.564-.036c.442.421.459 1.121.036 1.562-.974 1.02-2.936 1.655-5.117 1.655z"
    ></path>
    <path
      d="M118.937 114.206a1.104 1.104 0 0 1-1.04-1.484 75.662 75.662 0 0 0 3.755-14.673 1.107 1.107 0 0 1 2.189.329 77.86 77.86 0 0 1-3.865 15.102 1.107 1.107 0 0 1-1.039.726z"
    ></path>
    <path
      d="M88.32 144.045c-4.639 0-9.214-1.556-13.598-4.626a1.105 1.105 0 1 1 1.27-1.809c4.004 2.804 8.152 4.225 12.327 4.225 4.153 0 8.278-1.407 12.262-4.181a1.108 1.108 0 0 1 1.541.274c.349.5.227 1.189-.274 1.538-4.363 3.039-8.914 4.579-13.528 4.579z"
    ></path>
    <path
      d="M57.344 113.205c-.457 0-.885-.285-1.045-.74a78.015 78.015 0 0 1-3.465-13.837 1.107 1.107 0 0 1 2.187-.337 75.779 75.779 0 0 0 3.367 13.444 1.105 1.105 0 0 1-1.044 1.47z"
    ></path>
    <path
      d="M53.979 108.891c-4.379 0-7.941-3.556-7.941-7.927 0-3.749 2.667-7.016 6.342-7.766a1.106 1.106 0 1 1 .444 2.165 5.737 5.737 0 0 0-4.572 5.602c0 3.153 2.569 5.718 5.727 5.718a5.74 5.74 0 0 0 1.541-.209 1.105 1.105 0 1 1 .594 2.129 8.075 8.075 0 0 1-2.135.288z"
    ></path>
    <path
      d="M56.357 96.737a1.103 1.103 0 0 1-.922-1.713 19.783 19.783 0 0 0 2.79-6.569c2.768-12.233 9.603-16.411 27.087-16.56 10.816-.092 15.78-2.945 18.04-5.323 2.418-2.544 2.336-5.053 2.331-5.159a1.11 1.11 0 0 1 1.573-1.058c10.955 5.102 13.067 23.787 13.467 31.584.05.965.277 1.888.675 2.745a1.106 1.106 0 0 1-2.007.93 9.57 9.57 0 0 1-.878-3.562c-.361-7.04-2.141-23.414-10.817-28.94-.291 1.296-.993 3.116-2.67 4.909-3.701 3.957-10.327 6.004-19.694 6.083-18.286.155-22.748 5.118-24.947 14.837a21.976 21.976 0 0 1-3.102 7.298 1.11 1.11 0 0 1-.926.498z"
    ></path>
    <path
      d="M122.696 108.891a7.933 7.933 0 0 1-2.176-.302 1.105 1.105 0 1 1 .605-2.126 5.762 5.762 0 0 0 1.571.217c3.158 0 5.727-2.565 5.727-5.718a5.72 5.72 0 0 0-5.04-5.677 1.104 1.104 0 1 1 .263-2.194 7.931 7.931 0 0 1 6.991 7.871c-.001 4.372-3.563 7.929-7.941 7.929z"
    ></path>
    <path
      d="M51.166 94.98c-.478 0-.919-.312-1.061-.793a58.296 58.296 0 0 1-2.387-15.388c-.01-.359-.014-.731-.014-1.103 0-8.834 2.024-16.756 6.015-23.546 3.753-6.384 9.201-11.512 15.755-14.83 5.731-2.911 12.078-4.387 18.864-4.387 6.784 0 13.13 1.476 18.862 4.388 6.552 3.318 12 8.445 15.752 14.828 3.992 6.79 6.017 14.712 6.017 23.547a58.414 58.414 0 0 1-2.398 16.49 1.106 1.106 0 0 1-2.123-.624 56.23 56.23 0 0 0 2.307-15.867c0-16.52-7.493-29.79-20.559-36.405-5.42-2.753-11.428-4.148-17.859-4.148-6.434 0-12.443 1.395-17.862 4.147-13.065 6.615-20.558 19.885-20.558 36.407a56.065 56.065 0 0 0 2.311 15.867 1.104 1.104 0 0 1-1.062 1.417z"
    ></path>
    <path
      d="M106.698 41.41a1.11 1.11 0 0 1-.502-.12c-5.418-2.752-11.427-4.147-17.858-4.147-6.434 0-12.443 1.395-17.862 4.147a1.108 1.108 0 0 1-1.607-.931 18.14 18.14 0 0 1-.022-.903C68.847 28.727 77.589 20 88.334 20c10.747 0 19.491 8.727 19.491 19.455 0 .301-.007.602-.022.903a1.104 1.104 0 0 1-1.105 1.052zM88.334 22.209c-9.22 0-16.775 7.249-17.25 16.338 5.302-2.399 11.097-3.614 17.254-3.614 6.154 0 11.948 1.215 17.25 3.614-.475-9.088-8.032-16.338-17.254-16.338z"
    ></path>
    <path
      d="M109.18 91.524c-.102 0-.205-.014-.308-.044-5.999-1.735-9.89-.07-9.928-.053a1.11 1.11 0 0 1-1.46-.558 1.101 1.101 0 0 1 .55-1.456c.186-.084 4.616-2.032 11.454-.055a1.104 1.104 0 0 1-.308 2.166z"
    ></path>
    <path
      d="M67.495 91.524a1.104 1.104 0 0 1-.308-2.166c6.837-1.977 11.268-.029 11.454.055a1.104 1.104 0 0 1-.909 2.014c-.06-.026-3.945-1.677-9.928.053-.104.03-.208.044-.309.044z"
    ></path>
    <path
      d="M106.853 112.619s-1.49-2.566-2.696-1.91c-.732.398-1.328.913-.907 4.054.421 3.141 1.825 10.506 1.825 10.506l-.817-4.413-.3.291c-.234-.62-.51-1.133-.847-1.461-1.057-1.018-2.002.254-2.002 1.908 0 .431.074 1.174.201 2.101l-.156.148c-3.881-3.353.218-5.594-1.25-9.259-1.254-3.14-3.079-4.556 1.492-6.037 2.376-.772 2.43-3.472 5.209-3.883 2.113-.312 5.418.378 6.45 2.463.596 1.207 1.94 2.713 1.505 3.813l-.181.177c-.748-1.449-1.521-1.691-2.072-1.022-.391.472-.596 1.761-.358 3.357l-.185.181c-.711-1.621-2.113-4.732-2.828-5.66-.982-1.272-2.668-.542-2.458 1.765.07.73.189 1.728.37 2.877l.005.004c.23 1.44.559 3.119.994 4.785"
      fill="#86D5FF"
    ></path>
    <path
      d="M69.783 112.619s1.49-2.566 2.696-1.91c.732.398 1.328.913.907 4.054-.421 3.141-1.825 10.506-1.825 10.506l.817-4.413.3.291c.234-.62.51-1.133.847-1.461 1.057-1.018 2.002.254 2.002 1.908 0 .431-.074 1.174-.201 2.101l.156.148c3.881-3.353-.218-5.594 1.25-9.259 1.254-3.14 3.079-4.556-1.492-6.037-2.376-.772-2.43-3.472-5.209-3.883-2.113-.312-5.418.378-6.45 2.463-.596 1.207-1.94 2.713-1.505 3.813l.181.177c.748-1.449 1.521-1.691 2.072-1.022.391.472.596 1.761.358 3.357l.185.181c.711-1.621 2.113-4.732 2.828-5.66.982-1.272 2.668-.542 2.458 1.765a48.91 48.91 0 0 1-.37 2.877l-.005.004a50.751 50.751 0 0 1-.994 4.785"
      fill="#86D5FF"
    ></path>
    <path
      d="M69.834 180a1.106 1.106 0 0 1-1.107-1.105v-13.406c0-.688.144-1.386.417-2.016.364-.841 1.004-2.7 1.194-5.691.09-1.409.247-3.274.414-5.25.359-4.26.806-9.561.616-11.173-.25-2.11.177-3.669.768-5.827.174-.637.371-1.358.573-2.172.869-3.504 1.978-9.973 1.978-11.538 0-.568-.134-.957-.245-1.158-.585.623-1.02 2.428-1.404 4.025a57.22 57.22 0 0 1-.455 1.803c-.305 1.105-.733 2.185-1.229 3.435-.629 1.586-1.342 3.384-2.066 5.865a1.108 1.108 0 0 1-2.125-.618c.753-2.581 1.518-4.51 2.133-6.061.472-1.19.88-2.218 1.153-3.207a58.38 58.38 0 0 0 .437-1.733c.508-2.109.988-4.102 2.053-5.133.69-.667 1.525-.863 2.29-.54 1.015.429 1.671 1.733 1.671 3.323 0 1.901-1.189 8.624-2.043 12.069-.208.84-.41 1.575-.587 2.223-.563 2.059-.903 3.302-.704 4.985.216 1.834-.203 6.808-.608 11.617a278.052 278.052 0 0 0-.41 5.204c-.212 3.325-.95 5.454-1.371 6.427-.154.356-.236.75-.236 1.14v13.406A1.107 1.107 0 0 1 69.834 180z"
    ></path>
    <path
      d="M53.2 180a1.105 1.105 0 0 1-1.099-1.247c.013-.101 1.311-10.105 1.417-12.679.103-2.506-.199-9.149-1.393-13.875-1.86-7.362-2.647-12.254-2.406-14.957.224-2.508 1.208-4.598 2.159-6.619.384-.816.781-1.659 1.133-2.536.725-1.806 2.835-6.405 4.696-10.462 1.311-2.857 2.548-5.555 2.913-6.436.717-1.733 1.555-2.65 2.564-2.801.662-.099 1.321.174 1.799.751 1.025 1.24 1.063 4.748-.516 7.994a215.868 215.868 0 0 0-3.345 7.21c-.164.373-.356.995-.579 1.715-.606 1.959-1.435 4.641-2.902 6.272a1.108 1.108 0 0 1-1.563.085 1.102 1.102 0 0 1-.084-1.56c1.142-1.271 1.889-3.686 2.435-5.449.242-.784.452-1.461.665-1.948.716-1.635 1.98-4.408 3.382-7.29 1.194-2.456 1.113-4.653.888-5.408-.163.198-.409.574-.698 1.273-.38.92-1.569 3.512-2.946 6.513-1.851 4.034-3.949 8.607-4.654 10.364-.376.936-.787 1.809-1.184 2.653-.909 1.932-1.769 3.757-1.958 5.876-.216 2.418.573 7.202 2.347 14.22 1.25 4.946 1.566 11.888 1.458 14.506-.11 2.67-1.38 12.457-1.434 12.873A1.104 1.104 0 0 1 53.2 180z"
    ></path>
    <path
      d="M62.96 134.024a1.104 1.104 0 0 1-1.028-1.514c.031-.079 3.159-7.908 4.675-11.836 1.512-3.917 2.289-9.106 2.49-11.302.078-.857-.191-1.238-.297-1.28-.025-.011-.146.036-.283.214-.681.883-2.356 4.578-3.251 6.699a1.108 1.108 0 0 1-1.449.589 1.105 1.105 0 0 1-.59-1.447c.249-.589 2.458-5.79 3.538-7.19.733-.95 1.85-1.312 2.844-.923.941.368 1.88 1.491 1.693 3.537-.225 2.472-1.032 7.759-2.628 11.896-1.52 3.939-4.653 11.781-4.685 11.86-.174.434-.59.697-1.029.697z"
    ></path>
    <path
      d="M71.663 126.753a1.104 1.104 0 0 1-1.088-1.312c.015-.076 1.462-7.679 1.891-10.883.339-2.526-.013-2.895-.315-3.071-.316.116-.988.856-1.384 1.538a1.107 1.107 0 0 1-1.914-1.109c1.543-2.657 3.231-2.985 4.294-2.405 1.533.834 1.929 2.231 1.512 5.339-.438 3.264-1.851 10.688-1.911 11.003-.1.531-.564.9-1.085.9z"
    ></path>
    <path
      d="M106.803 180a1.106 1.106 0 0 1-1.107-1.105v-13.406c0-.389-.082-.783-.236-1.14-.421-.974-1.159-3.105-1.371-6.427a277.83 277.83 0 0 0-.41-5.197c-.406-4.813-.826-9.79-.609-11.625.199-1.684-.141-2.927-.705-4.986a87.701 87.701 0 0 1-.587-2.223c-.854-3.444-2.043-10.168-2.043-12.069 0-1.589.656-2.894 1.671-3.323.768-.324 1.6-.127 2.29.54 1.065 1.03 1.545 3.022 2.053 5.131.14.581.285 1.182.437 1.735.273.99.68 2.018 1.153 3.208.615 1.55 1.38 3.479 2.133 6.06a1.107 1.107 0 0 1-2.125.618c-.724-2.481-1.437-4.278-2.066-5.864-.496-1.25-.924-2.33-1.229-3.435a57.345 57.345 0 0 1-.455-1.805c-.384-1.596-.819-3.4-1.404-4.023-.111.201-.245.59-.245 1.158 0 1.565 1.109 8.035 1.979 11.538.202.814.399 1.535.573 2.171.59 2.158 1.017 3.717.768 5.827-.191 1.613.257 6.918.616 11.18.166 1.972.323 3.835.413 5.242.19 2.989.829 4.849 1.193 5.691.273.631.417 1.328.417 2.016v13.406a1.102 1.102 0 0 1-1.104 1.107z"
    ></path>
    <path
      d="M123.436 180a1.107 1.107 0 0 1-1.096-.963c-.054-.415-1.324-10.202-1.434-12.873-.108-2.618.209-9.561 1.458-14.506 1.774-7.019 2.563-11.803 2.347-14.22-.189-2.119-1.049-3.944-1.958-5.876-.397-.844-.808-1.717-1.184-2.653-.706-1.757-2.803-6.33-4.654-10.364-1.377-3.001-2.566-5.593-2.946-6.513-.29-.701-.536-1.078-.7-1.275-.223.743-.309 2.947.89 5.41a215.838 215.838 0 0 1 3.382 7.29c.213.488.423 1.165.665 1.948.545 1.763 1.292 4.178 2.435 5.449a1.104 1.104 0 1 1-1.647 1.475c-1.467-1.632-2.296-4.314-2.902-6.272-.223-.72-.415-1.342-.579-1.715a213.842 213.842 0 0 0-3.345-7.21c-1.579-3.245-1.541-6.754-.516-7.994.477-.577 1.13-.851 1.798-.751 1.008.151 1.846 1.067 2.564 2.801.364.881 1.602 3.579 2.913 6.436 1.861 4.057 3.97 8.656 4.696 10.462.352.876.749 1.72 1.133 2.536.951 2.021 1.935 4.11 2.159 6.619.242 2.702-.545 7.594-2.405 14.957-1.194 4.726-1.497 11.368-1.394 13.875.107 2.574 1.405 12.579 1.418 12.679a1.105 1.105 0 0 1-1.098 1.248z"
    ></path>
    <path
      d="M113.676 134.024c-.439 0-.855-.263-1.028-.696-.032-.079-3.164-7.92-4.684-11.86-1.595-4.133-2.403-9.422-2.628-11.896-.187-2.046.752-3.169 1.693-3.537.995-.389 2.111-.027 2.844.923 1.08 1.399 3.289 6.601 3.537 7.19a1.107 1.107 0 0 1-2.039.858c-.895-2.121-2.569-5.816-3.251-6.699-.139-.18-.26-.225-.283-.214-.125.049-.374.439-.298 1.28.201 2.197.979 7.387 2.49 11.302 1.515 3.927 4.643 11.757 4.674 11.836a1.103 1.103 0 0 1-1.027 1.513z"
    ></path>
    <path
      d="M104.974 126.753c-.521 0-.985-.369-1.086-.898-.06-.314-1.473-7.739-1.91-11.002-.417-3.108-.021-4.505 1.512-5.339 1.064-.579 2.751-.251 4.294 2.405a1.106 1.106 0 0 1-1.913 1.11c-.407-.696-1.068-1.425-1.384-1.54-.303.176-.654.545-.315 3.071.43 3.204 1.876 10.806 1.891 10.883a1.106 1.106 0 0 1-1.089 1.31z"
    ></path>
    <path
      d="M171.915 95.441a1.167 1.167 0 0 0-.698-.663l-23.234-8.447a1.172 1.172 0 0 0-.962.06 1.169 1.169 0 0 0-.588.762l-10.448 41.644c-.166.662.221 1.39.863 1.623l14.499 5.271a1.408 1.408 0 0 0 1.707-.689l18.821-38.6c.151-.311.166-.652.04-.961z"
      fill="#86D5FF"
    ></path>
    <path
      d="m152.103 135.307-15.624-5.68a.655.655 0 0 0-.838.39l-2.764 7.577a.653.653 0 0 0 .39.836l15.624 5.68a.654.654 0 0 0 .837-.39l2.764-7.577a.65.65 0 0 0-.389-.836z"
    ></path>
</svg>
