  <svg
    viewBox="34 19.999 132.001 160.001"
    height="200"
    width="200"
    xmlns="http://www.w3.org/2000/svg"
  >
    <path
      d="M45.478 180C39.149 180 34 174.598 34 167.959c0-1.951.458-3.895 1.325-5.624l7.589-15.046a2.87 2.87 0 0 1 2.564-1.575c1.085 0 2.077.61 2.564 1.575l7.583 15.04a12.616 12.616 0 0 1 1.331 5.629c.001 6.64-5.149 12.042-11.478 12.042zm0-25.061-5.021 9.955a6.868 6.868 0 0 0-.718 3.065c0 3.489 2.574 6.327 5.739 6.327s5.739-2.838 5.739-6.327c0-1.065-.25-2.127-.723-3.07l-5.016-9.95z"
    ></path>
    <path
      d="M126.373 102.857a2.867 2.867 0 0 1-2.029-.837L83.629 61.485a2.852 2.852 0 0 1 0-4.04l22.419-22.321a2.878 2.878 0 0 1 4.058 0l40.718 40.537a2.847 2.847 0 0 1 0 4.04l-22.421 22.32a2.875 2.875 0 0 1-2.03.836zM89.716 59.464l36.656 36.495 18.363-18.28-36.659-36.496-18.36 18.281z"
    ></path>
    <path
      d="M139.583 71.371a2.866 2.866 0 0 1-2.018-.826 2.847 2.847 0 0 1-.021-4.04l19.112-19.229c4.815-4.84 4.815-12.713.001-17.55a13.533 13.533 0 0 0-9.583-4.012 13.543 13.543 0 0 0-9.58 4.003L119.15 48.153a2.879 2.879 0 0 1-4.058.019 2.85 2.85 0 0 1-.019-4.041l18.336-18.428c3.574-3.622 8.558-5.704 13.665-5.704a19.312 19.312 0 0 1 13.669 5.713c7.012 7.045 7.012 18.526-.009 25.583l-19.111 19.227a2.862 2.862 0 0 1-2.04.849z"
    ></path>
    <path
      d="M54.087 142.857a2.867 2.867 0 0 1-2.029-.837l-8.609-8.571a2.848 2.848 0 0 1 0-4.041l5.271-5.248a41.515 41.515 0 0 1 9.766-15.438l38.342-38.143a2.879 2.879 0 0 1 4.058.002 2.85 2.85 0 0 1-.002 4.041l-38.341 38.141a35.76 35.76 0 0 0-8.606 13.859 2.86 2.86 0 0 1-.692 1.113l-3.71 3.694 4.55 4.531 3.71-3.694a2.888 2.888 0 0 1 1.118-.689c5.232-1.745 10.047-4.708 13.922-8.569l38.34-38.143a2.879 2.879 0 0 1 4.058.002 2.85 2.85 0 0 1-.002 4.041l-38.338 38.141c-4.338 4.321-9.688 7.674-15.507 9.723l-5.271 5.248a2.863 2.863 0 0 1-2.028.837z"
    ></path>
  </svg>